<svg width="490" height="240" viewBox="0 0 490 240" fill="none" xmlns="http://www.w3.org/2000/svg">
<path d="M0.835938 191.465V147.031L65.7773 35.6055V121.738L50.0547 147.031H65.7773V191.465H0.835938ZM85.2598 240V0.400391H133.111V147.031H151.568V191.465H133.111V240H85.2598ZM237.701 240C205.117 240 184.609 217.327 176.178 171.982C173.443 156.943 172.076 139.74 172.076 120.371C172.076 47.4544 190.647 7.80599 227.789 1.42578C230.979 0.970052 234.283 0.742188 237.701 0.742188V46.543C226.08 49.2773 219.7 65.7975 218.561 96.1035C218.333 101.344 218.219 108.18 218.219 116.611V124.131C218.219 155.576 220.953 175.856 226.422 184.971C229.384 189.984 233.144 193.06 237.701 194.199V240ZM256.5 240V194.199C268.121 191.465 274.501 174.945 275.641 144.639C275.868 139.398 275.982 132.562 275.982 124.131V116.611C275.982 85.166 273.248 64.8861 267.779 55.7715C264.817 50.7585 261.057 47.6823 256.5 46.543V0.742188C289.085 0.742188 309.592 23.4147 318.023 68.7598C320.758 83.7988 322.125 101.003 322.125 120.371C322.125 193.288 303.554 232.936 266.412 239.316C263.222 239.772 259.918 240 256.5 240ZM339.215 191.465V147.031L404.156 35.6055V121.738L388.434 147.031H404.156V191.465H339.215ZM423.639 240V0.400391H471.49V147.031H489.947V191.465H471.49V240H423.639Z" fill="#6A7BFE" fill-opacity="0.5"/>
</svg>
