<svg width="38" height="40" viewBox="0 0 38 40" fill="none" xmlns="http://www.w3.org/2000/svg">
<path d="M12.2915 17.3912H8.31641V21.3666H12.2915V17.3912Z" fill="#E2CE0A"/>
<path d="M29.6821 17.3911H25.707V21.3665H29.6821V17.3911Z" fill="#E2CE0A"/>
<path d="M23.8852 17.3911H19.9102V21.3665H23.8852V17.3911Z" fill="#E2CE0A"/>
<path d="M12.2915 23.6024H8.31641V27.5777H12.2915V23.6024Z" fill="#E2CE0A"/>
<path d="M23.8852 23.6023H19.9102V27.5777H23.8852V23.6023Z" fill="#E2CE0A"/>
<path d="M18.0884 23.6023H14.1133V27.5777H18.0884V23.6023Z" fill="#E2CE0A"/>
<path d="M29.6821 29.8135H25.707V33.7889H29.6821V29.8135Z" fill="#E2CE0A"/>
<path d="M23.8852 29.8135H19.9102V33.7889H23.8852V29.8135Z" fill="#E2CE0A"/>
<path d="M18.0884 29.8135H14.1133V33.7889H18.0884V29.8135Z" fill="#E2CE0A"/>
<path d="M33.3183 4.30048H30.0858V7.39969C30.0858 8.5561 29.133 9.49657 27.9621 9.49657H23.7414C22.5705 9.49657 21.6178 8.5561 21.6178 7.39969V4.30048H16.3761V7.37055C16.3761 8.54305 15.4129 9.49657 14.2289 9.49657H10.0552C8.87117 9.49657 7.90797 8.54305 7.90797 7.37055V4.30048H4.67547C2.57344 4.30048 0.863281 5.99516 0.863281 8.07813V36.2224C0.863281 38.3052 2.57344 40 4.67547 40H33.3183C35.4235 40 37.1363 38.3053 37.1363 36.2224V8.07813C37.1363 5.99524 35.4235 4.30048 33.3183 4.30048ZM34.4034 36.149C34.4034 36.8177 33.9541 37.2669 33.2854 37.2669H4.71414C4.04539 37.2669 3.59609 36.8177 3.59609 36.149V13.9132H34.4034V36.149Z" fill="#E2CE0A"/>
<path d="M10.0568 8.00836H14.228C14.5813 8.00836 14.8686 7.72297 14.8686 7.37211V1.60102C14.8686 0.718203 14.1444 0 13.2541 0H11.0307C10.1405 0 9.41602 0.718125 9.41602 1.60102V7.37211C9.41609 7.72297 9.70344 8.00836 10.0568 8.00836Z" fill="#E2CE0A"/>
<path d="M23.7408 8.00836H27.9615C28.3012 8.00836 28.5774 7.73391 28.5774 7.39695V1.57641C28.5774 0.707266 27.8643 0 26.9875 0H24.7148C23.8381 0 23.125 0.707266 23.125 1.57641V7.39695C23.1249 7.73391 23.4012 8.00836 23.7408 8.00836Z" fill="#E2CE0A"/>
</svg>
