<svg width="150" height="150" viewBox="0 0 150 150" fill="none" xmlns="http://www.w3.org/2000/svg">
<path d="M66.0586 149.664H16.207C14.4883 149.664 13.0938 148.27 13.0938 146.555V103C13.0938 101.281 14.4883 99.8867 16.207 99.8867H66.0586C67.7774 99.8867 69.1758 101.281 69.1758 103V146.555C69.1758 148.27 67.7774 149.664 66.0586 149.664ZM19.3242 143.441H62.9414V106.109H19.3242V143.441Z" fill="#E2CE0A"/>
<path d="M31.7852 137.219C30.0664 137.219 28.6719 135.828 28.6719 134.109V115.441C28.6719 113.727 30.0664 112.332 31.7852 112.332C33.5039 112.332 34.9023 113.727 34.9023 115.441V134.109C34.9023 135.828 33.5039 137.219 31.7852 137.219Z" fill="#E2CE0A"/>
<path d="M66.0586 149.664H16.207C14.4883 149.664 13.0938 148.27 13.0938 146.555V103C13.0938 101.281 14.4883 99.8867 16.207 99.8867H66.0586C67.7774 99.8867 69.1758 101.281 69.1758 103V146.555C69.1758 148.27 67.7774 149.664 66.0586 149.664ZM19.3242 143.441H62.9414V106.109H19.3242V143.441Z" fill="#E2CE0A"/>
<path d="M50.4805 137.219C48.7617 137.219 47.3633 135.828 47.3633 134.109V115.441C47.3633 113.727 48.7617 112.332 50.4805 112.332C52.1992 112.332 53.5938 113.727 53.5938 115.441V134.109C53.5938 135.828 52.1992 137.219 50.4805 137.219Z" fill="#E2CE0A"/>
<path d="M31.7852 137.219C30.0664 137.219 28.6719 135.828 28.6719 134.109V115.441C28.6719 113.727 30.0664 112.332 31.7852 112.332C33.5039 112.332 34.9023 113.727 34.9023 115.441V134.109C34.9023 135.828 33.5039 137.219 31.7852 137.219Z" fill="#E2CE0A"/>
<mask id="mask0_109_450" style="mask-type:luminance" maskUnits="userSpaceOnUse" x="81" y="99" width="57" height="51">
<path d="M81 99H137.719V150H81V99Z" fill="white"/>
</mask>
<g mask="url(#mask0_109_450)">
<path d="M134.602 149.664H84.7539C83.0313 149.664 81.6367 148.27 81.6367 146.555V103C81.6367 101.281 83.0313 99.8867 84.7539 99.8867H134.602C136.324 99.8867 137.719 101.281 137.719 103V146.555C137.719 148.27 136.324 149.664 134.602 149.664ZM87.8672 143.441H131.488V106.109H87.8672V143.441Z" fill="#E2CE0A"/>
</g>
<path d="M100.332 137.219C98.6094 137.219 97.2148 135.828 97.2148 134.109V115.441C97.2148 113.727 98.6094 112.332 100.332 112.332C102.051 112.332 103.445 113.727 103.445 115.441V134.109C103.445 135.828 102.051 137.219 100.332 137.219Z" fill="#E2CE0A"/>
<mask id="mask1_109_450" style="mask-type:luminance" maskUnits="userSpaceOnUse" x="81" y="99" width="57" height="51">
<path d="M81 99H137.719V150H81V99Z" fill="white"/>
</mask>
<g mask="url(#mask1_109_450)">
<path d="M134.602 149.664H84.7539C83.0313 149.664 81.6367 148.27 81.6367 146.555V103C81.6367 101.281 83.0313 99.8867 84.7539 99.8867H134.602C136.324 99.8867 137.719 101.281 137.719 103V146.555C137.719 148.27 136.324 149.664 134.602 149.664ZM87.8672 143.441H131.488V106.109H87.8672V143.441Z" fill="#E2CE0A"/>
</g>
<path d="M119.023 137.219C117.305 137.219 115.91 135.828 115.91 134.109V115.441C115.91 113.727 117.305 112.332 119.023 112.332C120.746 112.332 122.141 113.727 122.141 115.441V134.109C122.141 135.828 120.746 137.219 119.023 137.219Z" fill="#E2CE0A"/>
<path d="M100.332 137.219C98.6094 137.219 97.2148 135.828 97.2148 134.109V115.441C97.2148 113.727 98.6094 112.332 100.332 112.332C102.051 112.332 103.445 113.727 103.445 115.441V134.109C103.445 135.828 102.051 137.219 100.332 137.219Z" fill="#E2CE0A"/>
<mask id="mask2_109_450" style="mask-type:luminance" maskUnits="userSpaceOnUse" x="81" y="56" width="57" height="51">
<path d="M81 56H137.719V107H81V56Z" fill="white"/>
</mask>
<g mask="url(#mask2_109_450)">
<path d="M134.602 106.109H84.7539C83.0313 106.109 81.6367 104.715 81.6367 103V59.4453C81.6367 57.7266 83.0313 56.332 84.7539 56.332H134.602C136.324 56.332 137.719 57.7266 137.719 59.4453V103C137.719 104.715 136.324 106.109 134.602 106.109ZM87.8672 99.8867H131.488V62.5547H87.8672V99.8867Z" fill="#E2CE0A"/>
</g>
<path d="M100.332 93.668C98.6094 93.668 97.2148 92.2734 97.2148 90.5547V71.8906C97.2148 70.1719 98.6094 68.7773 100.332 68.7773C102.051 68.7773 103.445 70.1719 103.445 71.8906V90.5547C103.445 92.2734 102.051 93.668 100.332 93.668Z" fill="#E2CE0A"/>
<mask id="mask3_109_450" style="mask-type:luminance" maskUnits="userSpaceOnUse" x="81" y="56" width="57" height="51">
<path d="M81 56H137.719V107H81V56Z" fill="white"/>
</mask>
<g mask="url(#mask3_109_450)">
<path d="M134.602 106.109H84.7539C83.0313 106.109 81.6367 104.715 81.6367 103V59.4453C81.6367 57.7266 83.0313 56.332 84.7539 56.332H134.602C136.324 56.332 137.719 57.7266 137.719 59.4453V103C137.719 104.715 136.324 106.109 134.602 106.109ZM87.8672 99.8867H131.488V62.5547H87.8672V99.8867Z" fill="#E2CE0A"/>
</g>
<path d="M119.023 93.668C117.305 93.668 115.91 92.2734 115.91 90.5547V71.8906C115.91 70.1719 117.305 68.7773 119.023 68.7773C120.746 68.7773 122.141 70.1719 122.141 71.8906V90.5547C122.141 92.2734 120.746 93.668 119.023 93.668Z" fill="#E2CE0A"/>
<path d="M100.332 93.668C98.6094 93.668 97.2148 92.2734 97.2148 90.5547V71.8906C97.2148 70.1719 98.6094 68.7773 100.332 68.7773C102.051 68.7773 103.445 70.1719 103.445 71.8906V90.5547C103.445 92.2734 102.051 93.668 100.332 93.668Z" fill="#E2CE0A"/>
<mask id="mask4_109_450" style="mask-type:luminance" maskUnits="userSpaceOnUse" x="81" y="12" width="57" height="51">
<path d="M81 12H137.719V63H81V12Z" fill="white"/>
</mask>
<g mask="url(#mask4_109_450)">
<path d="M134.602 62.5547H84.7539C83.0313 62.5547 81.6367 61.1641 81.6367 59.4453V15.8906C81.6367 14.1719 83.0313 12.7812 84.7539 12.7812H134.602C136.324 12.7812 137.719 14.1719 137.719 15.8906V59.4453C137.719 61.1641 136.324 62.5547 134.602 62.5547ZM87.8672 56.332H131.488V19H87.8672V56.332Z" fill="#E2CE0A"/>
</g>
<path d="M100.332 50.1133C98.6094 50.1133 97.2148 48.7188 97.2148 47V28.3359C97.2148 26.6172 98.6094 25.2227 100.332 25.2227C102.051 25.2227 103.445 26.6172 103.445 28.3359V47C103.445 48.7188 102.051 50.1133 100.332 50.1133Z" fill="#E2CE0A"/>
<mask id="mask5_109_450" style="mask-type:luminance" maskUnits="userSpaceOnUse" x="81" y="12" width="57" height="51">
<path d="M81 12H137.719V63H81V12Z" fill="white"/>
</mask>
<g mask="url(#mask5_109_450)">
<path d="M134.602 62.5547H84.7539C83.0313 62.5547 81.6367 61.1641 81.6367 59.4453V15.8906C81.6367 14.1719 83.0313 12.7812 84.7539 12.7812H134.602C136.324 12.7812 137.719 14.1719 137.719 15.8906V59.4453C137.719 61.1641 136.324 62.5547 134.602 62.5547ZM87.8672 56.332H131.488V19H87.8672V56.332Z" fill="#E2CE0A"/>
</g>
<path d="M119.023 50.1133C117.305 50.1133 115.91 48.7188 115.91 47V28.3359C115.91 26.6172 117.305 25.2227 119.023 25.2227C120.746 25.2227 122.141 26.6172 122.141 28.3359V47C122.141 48.7188 120.746 50.1133 119.023 50.1133Z" fill="#E2CE0A"/>
<path d="M100.332 50.1133C98.6094 50.1133 97.2148 48.7188 97.2148 47V28.3359C97.2148 26.6172 98.6094 25.2227 100.332 25.2227C102.051 25.2227 103.445 26.6172 103.445 28.3359V47C103.445 48.7188 102.051 50.1133 100.332 50.1133Z" fill="#E2CE0A"/>
<path d="M66.0586 87.4453H16.207C14.4883 87.4453 13.0938 86.0508 13.0938 84.332V40.7773C13.0938 39.0625 14.4883 37.668 16.207 37.668H66.0586C67.7774 37.668 69.1758 39.0625 69.1758 40.7773V84.332C69.1758 86.0508 67.7774 87.4453 66.0586 87.4453ZM19.3242 81.2227H62.9414V43.8906H19.3242V81.2227Z" fill="#E2CE0A"/>
<path d="M31.7852 75C30.0664 75 28.6719 73.6055 28.6719 71.8906V53.2227C28.6719 51.5039 30.0664 50.1133 31.7852 50.1133C33.5039 50.1133 34.9023 51.5039 34.9023 53.2227V71.8906C34.9023 73.6055 33.5039 75 31.7852 75Z" fill="#E2CE0A"/>
<path d="M66.0586 87.4453H16.207C14.4883 87.4453 13.0938 86.0508 13.0938 84.332V40.7773C13.0938 39.0625 14.4883 37.668 16.207 37.668H66.0586C67.7774 37.668 69.1758 39.0625 69.1758 40.7773V84.332C69.1758 86.0508 67.7774 87.4453 66.0586 87.4453ZM19.3242 81.2227H62.9414V43.8906H19.3242V81.2227Z" fill="#E2CE0A"/>
<path d="M50.4805 75C48.7617 75 47.3633 73.6055 47.3633 71.8906V53.2227C47.3633 51.5039 48.7617 50.1133 50.4805 50.1133C52.1992 50.1133 53.5938 51.5039 53.5938 53.2227V71.8906C53.5938 73.6055 52.1992 75 50.4805 75Z" fill="#E2CE0A"/>
<path d="M31.7852 75C30.0664 75 28.6719 73.6055 28.6719 71.8906V53.2227C28.6719 51.5039 30.0664 50.1133 31.7852 50.1133C33.5039 50.1133 34.9023 51.5039 34.9023 53.2227V71.8906C34.9023 73.6055 33.5039 75 31.7852 75Z" fill="#E2CE0A"/>
<path d="M41.1328 28.3359C35.9805 28.3359 31.7852 24.1484 31.7852 19C31.7852 14.9453 34.3906 11.4844 38.0156 10.2031V3.44531C38.0156 1.73047 39.4141 0.335938 41.1328 0.335938C42.8516 0.335938 44.25 1.73047 44.25 3.44531V12.7813C44.25 14.4961 42.8516 15.8906 41.1328 15.8906C39.4141 15.8906 38.0156 17.2891 38.0156 19C38.0156 20.7148 39.4141 22.1133 41.1328 22.1133C42.8516 22.1133 44.25 20.7148 44.25 19C44.25 17.2852 45.6445 15.8906 47.3633 15.8906C49.0859 15.8906 50.4805 17.2852 50.4805 19C50.4805 24.1484 46.2852 28.3359 41.1328 28.3359Z" fill="#E2CE0A"/>
<path d="M16.2071 43.8906C15.3399 43.8906 14.4805 43.5274 13.8633 42.8242C12.7305 41.5313 12.8594 39.5703 14.1563 38.4375L24.8399 29.1055C26.1289 27.9727 28.0899 28.0977 29.2383 29.3984C30.3711 30.6914 30.2422 32.6524 28.9453 33.7852L18.2656 43.1172C17.6641 43.6367 16.9375 43.8906 16.2071 43.8906Z" fill="#E2CE0A"/>
<path d="M66.0589 43.8906C65.3284 43.8906 64.6019 43.6367 64.0081 43.1172L53.3284 33.7852C52.0316 32.6524 51.9026 30.6914 53.0276 29.3984C54.1644 28.0977 56.1331 27.9727 57.43 29.1055L68.1097 38.4375C69.4066 39.5703 69.5355 41.5313 68.4026 42.8242C67.7855 43.5274 66.9261 43.8906 66.0589 43.8906Z" fill="#E2CE0A"/>
</svg>
