<svg width="150" height="150" viewBox="0 0 150 150" fill="none" xmlns="http://www.w3.org/2000/svg">
<g clip-path="url(#clip0_109_515)">
<mask id="mask0_109_515" style="mask-type:luminance" maskUnits="userSpaceOnUse" x="4" y="0" width="141" height="150">
<path d="M4.77344 0H145V150H4.77344V0Z" fill="white"/>
</mask>
<g mask="url(#mask0_109_515)">
<path d="M140.84 145.84H34.2031V4.16016H122.32V20.7656H140.84V145.84ZM30.0508 145.84H26.7383V4.16016H30.0508V145.84ZM22.5859 145.84H18.3281V4.16016H22.5859V145.84ZM14.1758 145.84H8.95703V4.16016H14.1758V145.84ZM126.473 6.73047L137.484 16.6055H126.473V6.73047ZM125.188 0H4.80469V150H144.992V17.7539L125.188 0Z" fill="#E2CE0A"/>
</g>
<path d="M52.3281 129.82H122.715V125.66H52.3281V129.82Z" fill="#E2CE0A"/>
<path d="M52.3281 34.1523H122.715V29.9961H52.3281V34.1523Z" fill="#E2CE0A"/>
<path d="M52.3281 117.859H122.715V113.703H52.3281V117.859Z" fill="#E2CE0A"/>
<path d="M52.3281 105.902H122.715V101.746H52.3281V105.902Z" fill="#E2CE0A"/>
<path d="M52.3281 93.9453H122.715V89.7852H52.3281V93.9453Z" fill="#E2CE0A"/>
<path d="M52.3281 81.9883H122.715V77.8281H52.3281V81.9883Z" fill="#E2CE0A"/>
<path d="M52.3281 70.0273H122.715V65.8711H52.3281V70.0273Z" fill="#E2CE0A"/>
<path d="M52.3281 58.0703H122.715V53.9102H52.3281V58.0703Z" fill="#E2CE0A"/>
<path d="M52.3281 46.1133H122.715V41.9531H52.3281V46.1133Z" fill="#E2CE0A"/>
</g>
<defs>
<clipPath id="clip0_109_515">
<rect width="150" height="150" fill="white"/>
</clipPath>
</defs>
</svg>
