<svg width="150" height="150" viewBox="0 0 150 150" fill="none" xmlns="http://www.w3.org/2000/svg">
<g clip-path="url(#clip0_109_505)">
<mask id="mask0_109_505" style="mask-type:luminance" maskUnits="userSpaceOnUse" x="0" y="10" width="150" height="130">
<path d="M0 10.3633H150V139.363H0V10.3633Z" fill="white"/>
</mask>
<g mask="url(#mask0_109_505)">
<path d="M85.5425 28.8828C81.9917 28.543 78.4097 28 74.8628 27.9297C65.5816 27.6914 56.5073 29.4648 47.3628 30.8594C44.0894 31.3711 42.5191 32.8008 41.0542 35.625C36.0034 45.293 30.5112 54.7266 25.187 64.2226C24.8472 64.8711 24.4058 65.6875 24.5073 66.3359C25.0191 69.332 25.7339 72.2578 26.4175 75.4922C27.3042 74.8125 27.9878 74.3008 28.6675 73.8242C32.4878 71 37.23 71.5781 39.6206 75.1875C41.3589 77.7734 41.1558 80.7031 39.0386 82.9844C34.6402 87.75 30.2027 92.5156 25.7339 97.25C23.5855 99.5312 19.9331 99.9375 17.1362 98.3047C14.5112 96.7734 13.2808 93.7422 14.2378 90.6445C14.648 89.3164 15.3277 88.0234 16.1831 86.8984C17.7495 84.8203 19.5581 82.9141 21.1987 80.8711C21.605 80.3633 21.9136 79.4766 21.812 78.8633C21.4019 76.6172 20.8198 74.4023 20.2417 72.1914C20.1402 71.7812 19.73 71.2734 19.3198 71.1016C17.7847 70.4883 16.0777 70.1484 14.648 69.3633C11.5777 67.6953 8.64015 65.7891 5.64015 63.9844C4.78468 63.4766 3.93312 63.0312 3.01124 62.6562C0.69093 61.7031 0.0776488 60.6836 0.999524 58.3672C2.05812 55.7461 3.24952 53.1601 4.51515 50.6406C9.59718 40.4258 15.2261 30.5195 21.5737 21.0195C22.6284 19.4531 23.8589 17.957 25.187 16.5586C27.3042 14.3125 29.0777 14.0742 31.5347 15.9805C34.8433 18.5351 38.0503 21.293 41.1206 24.1523C42.6206 25.5469 43.8862 26.1953 46.1362 25.7539C55.0737 23.9492 64.1167 22.4844 73.2613 22.4492C80.937 22.4141 88.5425 23.2344 95.3003 27.5586C96.9722 28.6445 98.6753 27.9297 99.8706 26.3984C103.589 21.6328 107.343 16.8672 111.265 12.2344C112.835 10.3633 114.199 10.4336 116.078 12.0312C126.859 21.293 137.605 30.5547 148.351 39.8125C149.851 41.1055 149.921 42.5039 148.488 44.0703C145.691 47.1328 142.859 50.1992 139.992 53.1953C138.628 54.625 137.503 55.918 137.16 58.0976C136.375 63.3398 134.875 68.4101 131.328 72.7695C132.351 73.5859 133.136 74.4375 134.089 75.0156C137.98 77.4336 138.558 81.043 137.605 85.0273C136.273 90.6094 132.726 94.1836 127.164 95.6484C126.14 95.9219 125.8 96.3633 125.628 97.4883C124.707 103.75 122.183 109.027 116.043 111.887C115.496 112.125 115.121 113.113 115.054 113.797C114.781 117.164 114.031 120.367 111.777 123.055C109.832 125.371 107.308 126.801 104.273 126.937C102.804 127.004 102.363 127.617 102.019 128.879C100.519 134.527 94.2769 139.363 88.4409 139.09C86.5308 138.988 84.4175 138.207 82.8472 137.117C76.6714 132.793 70.7027 128.23 64.6284 123.738C64.4917 123.633 64.355 123.566 64.0464 123.395C62.855 124.691 61.6948 126.051 60.4331 127.312C56.8823 130.887 51.2534 129.934 49.0698 125.406C48.0464 123.293 48.0816 121.25 49.7886 119.344C54.0191 114.543 58.2808 109.777 62.273 104.809C64.8316 101.641 69.1988 102.016 71.3823 103.684C74.1792 105.793 75.0659 109.98 73.0542 112.91C71.8941 114.613 70.3589 116.043 68.9956 117.609C68.5855 118.086 68.1402 118.562 67.5972 119.176C69.3706 120.57 70.9722 121.934 72.6792 123.191C77.148 126.426 81.6519 129.594 86.1558 132.828C87.5894 133.848 89.0542 133.984 90.6597 133.336C93.6597 132.18 96.187 130.512 97.1753 127.176C97.4488 126.187 97.312 125.473 96.562 124.859C90.8316 120.23 85.0972 115.633 79.3316 111.039C78.105 110.086 76.8433 109.234 76.98 107.395C77.1167 105.828 78.1402 104.875 79.6402 105.316C80.9683 105.691 82.3355 106.305 83.4253 107.156C88.3042 111.039 93.0816 115.02 97.8902 118.969C98.3706 119.344 98.7808 119.754 99.2574 120.129C102.941 123.055 107.921 121.387 109.152 116.824C109.253 116.418 109.355 115.973 109.425 115.566C110.003 112.945 109.628 110.867 107.171 109.062C101.746 105.078 96.562 100.824 91.3433 96.6016C90.5894 95.9883 89.7378 95.2383 89.4995 94.3906C89.2613 93.5391 89.398 92.1758 89.9761 91.5976C90.523 91.0508 91.8198 91.0508 92.773 91.0859C93.355 91.1211 93.9019 91.6992 94.4136 92.1094C99.8706 96.4648 105.328 100.859 110.789 105.215C113.585 107.461 114.746 107.359 117.031 104.57C118.941 102.254 120.339 99.668 120.375 96.6016C120.375 95.7851 119.933 94.7617 119.316 94.2187C114.543 90.1328 109.695 86.1484 104.921 82.0625C103.964 81.2812 103.113 80.3281 102.429 79.3047C101.746 78.3203 101.918 77.0273 102.906 76.3789C103.66 75.9023 104.921 75.6289 105.738 75.9375C106.933 76.3789 107.957 77.2969 108.945 78.1484C113.312 81.8594 117.679 85.6055 121.945 89.418C123.515 90.8125 125.082 91.2226 126.824 90.1328C128.289 89.2148 129.859 88.293 130.918 87C133.476 83.9375 133.066 81.0781 130.097 78.4883C118.089 67.9687 106.113 57.4492 94.0698 47.0312C93.355 46.418 92.0933 46.043 91.1363 46.1797C85.8823 46.8594 80.6284 47.6094 75.4448 48.5273C73.773 48.8359 72.1675 49.6875 70.5308 50.332C65.6519 52.3086 61.1831 51.4219 57.0894 48.4258C54.3237 46.418 54.0191 43.7305 56.4722 41.3125C58.7612 39.0625 61.5581 37.3281 63.8784 35.1133C66.9839 32.1523 70.7027 31.0625 74.8628 30.7578C78.4448 30.4844 81.9917 29.8359 85.5777 29.3594C85.5425 29.2578 85.5425 29.0898 85.5425 28.8828ZM28.9761 20.3047C19.9019 32.3906 13.2495 45.3633 6.72999 58.4687C10.7925 60.8203 14.5777 63.0312 18.5034 65.3125C24.5737 54.2812 30.5464 43.457 36.48 32.6289C37.0972 31.5078 38.3589 30.2109 38.1519 29.2266C37.9487 28.1367 36.4136 27.2851 35.4253 26.3633C33.4448 24.4258 31.3628 22.5195 28.9761 20.3047ZM142.925 42.1289C141.765 41.1758 140.742 40.3594 139.789 39.5078C135.558 35.7266 131.394 31.8789 127.062 28.168C123.14 24.8008 119.046 21.5664 115.019 18.332C114.644 18.0234 113.656 17.8867 113.449 18.0937C110.718 21.2578 108.058 24.4922 105.296 27.7969C114.949 35.7617 124.503 43.6601 134.16 51.6289C137.128 48.4609 139.992 45.3633 142.925 42.1289Z" fill="#E2CE0A"/>
</g>
<path d="M56.7147 93.0938C60.2967 93.0938 63.2303 95.6836 63.2967 99.1562C63.3319 100.277 62.8865 101.676 62.1717 102.559C57.1209 108.586 51.9725 114.512 46.8514 120.469C43.9178 123.871 40.3045 124.453 37.2303 122.066C33.992 119.516 33.4451 115.191 36.242 111.785C39.824 107.461 43.6444 103.344 47.3631 99.1211C48.3904 97.9648 49.3787 96.8047 50.4373 95.7148C52.3787 93.7422 53.9842 93.0938 56.7147 93.0938Z" fill="#E2CE0A"/>
<path d="M31.195 112.844C25.6325 112.469 22.3552 106.852 25.1559 101.914C26.7575 99.0547 29.0114 96.5 31.195 94.0156C33.9919 90.8125 36.9606 87.75 39.8942 84.6524C41.8395 82.6094 45.5895 82.0313 48.0817 83.3594C50.6403 84.7188 52.1755 88.0547 51.3903 90.8828C51.1872 91.5977 50.777 92.2774 50.2653 92.8555C44.8395 99.0547 39.4138 105.25 33.9216 111.379C33.2419 112.094 32.113 112.363 31.195 112.844Z" fill="#E2CE0A"/>
</g>
<defs>
<clipPath id="clip0_109_505">
<rect width="150" height="150" fill="white"/>
</clipPath>
</defs>
</svg>
