<?xml version="1.0" encoding="utf-8"?>
<!-- Generator: Adobe Illustrator 27.3.1, SVG Export Plug-In . SVG Version: 6.00 Build 0)  -->
<svg version="1.1" id="Слой_1" xmlns="http://www.w3.org/2000/svg" xmlns:xlink="http://www.w3.org/1999/xlink" x="0px" y="0px"
	 viewBox="0 0 345.86 66.13" style="enable-background:new 0 0 345.86 66.13;" xml:space="preserve">
<style type="text/css">
	.st0{fill:#FFFFFF;}
	.st1{fill:#6D7EF7;}
	.st2{fill:#DDC63E;}
</style>
<g>
	<g>
		<path class="st0" d="M14.31,53.51c0.4,0.31,0.58,0.63,0.58,0.98c0,0.67-0.63,1.22-1.4,1.22c-0.4,0-0.75-0.12-1-0.35
			c-1.07-0.96-2.38-1.45-3.94-1.45c-1.54,0-2.87,0.49-3.96,1.45c-1.1,0.96-1.63,2.1-1.63,3.44c0,1.34,0.54,2.5,1.63,3.46
			c1.1,0.96,2.42,1.43,3.96,1.43s2.84-0.47,3.94-1.43c0.56-0.49,1.44-0.49,1.98,0c0.56,0.47,0.56,1.24,0,1.73
			c-1.63,1.43-3.61,2.14-5.92,2.14S4.27,65.42,2.62,64c-1.63-1.45-2.45-3.18-2.45-5.19s0.82-3.75,2.45-5.17
			c1.65-1.45,3.63-2.16,5.94-2.16C10.73,51.48,12.66,52.15,14.31,53.51z"/>
		<path class="st0" d="M40.3,52.7c0-0.67,0.63-1.22,1.4-1.22s1.4,0.55,1.4,1.22v6.62c0,1.89-0.77,3.5-2.28,4.82
			c-1.51,1.32-3.36,2-5.52,2c-2.17,0-4.01-0.67-5.52-2c-1.51-1.32-2.28-2.93-2.28-4.82V52.7c0-0.67,0.63-1.22,1.4-1.22
			c0.77,0,1.4,0.55,1.4,1.22v6.72c0.02,1.2,0.54,2.2,1.49,3.03c0.98,0.83,2.14,1.24,3.52,1.24c1.37,0,2.56-0.43,3.54-1.28
			c0.98-0.85,1.47-1.89,1.47-3.09V52.7z"/>
		<path class="st0" d="M63.11,63.69c2.87,0,4.31-0.61,4.31-1.83c0-1.22-1.44-1.83-4.31-1.83c-2.17,0-3.89-0.37-5.17-1.08
			c-1.28-0.71-1.93-1.79-1.93-3.2c0-1.32,0.65-2.38,1.96-3.14c1.33-0.75,3.03-1.14,5.15-1.14c2.03,0,3.82,0.31,5.43,0.92
			c0.77,0.31,1.14,0.92,0.86,1.55c-0.33,0.71-0.91,0.98-1.75,0.75c-1.44-0.51-2.96-0.77-4.54-0.77c-2.87,0-4.31,0.61-4.31,1.83
			s1.44,1.83,4.31,1.83c2.17,0,3.89,0.37,5.17,1.08c1.28,0.71,1.93,1.79,1.93,3.2c0,1.32-0.65,2.38-1.98,3.14
			c-1.31,0.75-3.01,1.14-5.13,1.14h-0.7c-2.03,0-3.82-0.31-5.43-0.9c-0.72-0.22-1.14-0.96-0.86-1.59c0.3-0.67,1.05-0.96,1.77-0.73
			c1.56,0.51,3.08,0.77,4.52,0.77H63.11z"/>
		<path class="st0" d="M89.24,53.92h-5.59c-0.77,0-1.4-0.55-1.4-1.22c0-0.67,0.63-1.22,1.4-1.22h13.98c0.77,0,1.4,0.55,1.4,1.22
			c0,0.67-0.63,1.22-1.4,1.22h-5.59v10.99c0,0.67-0.63,1.22-1.4,1.22c-0.77,0-1.4-0.55-1.4-1.22V53.92z"/>
		<path class="st0" d="M110.91,58.8c0-2.02,0.82-3.75,2.45-5.17c1.65-1.45,3.64-2.16,5.94-2.16c2.31,0,4.29,0.71,5.92,2.16
			c1.65,1.42,2.47,3.16,2.47,5.17s-0.82,3.75-2.47,5.19c-1.63,1.43-3.61,2.14-5.92,2.14c-2.31,0-4.29-0.71-5.94-2.14
			C111.73,62.55,110.91,60.82,110.91,58.8z M113.71,58.8c0,1.34,0.54,2.5,1.63,3.46c1.09,0.96,2.42,1.43,3.96,1.43
			c1.54,0,2.84-0.47,3.94-1.43c1.1-0.96,1.65-2.12,1.65-3.46c0-1.34-0.56-2.48-1.65-3.44c-1.1-0.96-2.4-1.45-3.94-1.45
			c-1.54,0-2.87,0.49-3.96,1.45C114.24,56.32,113.71,57.46,113.71,58.8z"/>
		<path class="st0" d="M156.82,55.65l-5.78,5.05c-0.26,0.22-0.58,0.35-0.98,0.35c-0.4,0-0.75-0.12-1-0.35l-5.76-5.05v9.26
			c0,0.67-0.63,1.22-1.4,1.22c-0.77,0-1.4-0.55-1.4-1.22V52.7c0-0.67,0.63-1.22,1.4-1.22c0.35,0,0.68,0.12,0.98,0.35l7.18,6.27
			l7.15-6.25c0.89-0.77,2.4-0.2,2.4,0.85v12.22c0,0.67-0.63,1.22-1.4,1.22c-0.77,0-1.4-0.55-1.4-1.22V55.65z"/>
		<path class="st0" d="M179.87,63.69c2.87,0,4.31-0.61,4.31-1.83c0-1.22-1.44-1.83-4.31-1.83c-2.17,0-3.89-0.37-5.17-1.08
			c-1.28-0.71-1.93-1.79-1.93-3.2c0-1.32,0.65-2.38,1.96-3.14c1.33-0.75,3.03-1.14,5.15-1.14c2.03,0,3.82,0.31,5.43,0.92
			c0.77,0.31,1.14,0.92,0.86,1.55c-0.33,0.71-0.91,0.98-1.75,0.75c-1.45-0.51-2.96-0.77-4.54-0.77c-2.87,0-4.31,0.61-4.31,1.83
			s1.44,1.83,4.31,1.83c2.17,0,3.89,0.37,5.17,1.08c1.28,0.71,1.93,1.79,1.93,3.2c0,1.32-0.65,2.38-1.98,3.14
			c-1.31,0.75-3.01,1.14-5.13,1.14h-0.7c-2.03,0-3.82-0.31-5.43-0.9c-0.72-0.22-1.14-0.96-0.86-1.59c0.3-0.67,1.05-0.96,1.77-0.73
			c1.56,0.51,3.08,0.77,4.52,0.77H179.87z"/>
	</g>
	<path class="st0" d="M0,14.28c0-2.32,2.17-4.21,4.82-4.21c2.65,0,4.82,1.89,4.82,4.21v8.42H26.5v-8.42c0-2.32,2.17-4.21,4.82-4.21
		c2.65,0,4.82,1.89,4.82,4.21v25.25c0,2.32-2.17,4.21-4.82,4.21c-2.65,0-4.82-1.89-4.82-4.21v-8.42H9.63v8.42
		c0,2.32-2.17,4.21-4.82,4.21C2.17,43.75,0,41.85,0,39.54V14.28z"/>
	<path class="st0" d="M44.8,14.28c0-2.32,2.17-4.21,4.82-4.21c2.65,0,4.82,1.89,4.82,4.21v25.25c0,2.32-2.17,4.21-4.82,4.21
		c-2.65,0-4.82-1.89-4.82-4.21V14.28z"/>
	<path class="st0" d="M86.33,33.86v-2.23h-4.82c-2.65,0-4.82-1.89-4.82-4.21s2.17-4.21,4.82-4.21h9.63c2.65,0,4.82,1.89,4.82,4.21
		v8.42c0,1.22-0.48,2.19-1.45,2.99h0.05c-3.76,3.28-8.29,4.92-13.63,4.92c-5.35,0-9.88-1.64-13.63-4.92
		c-3.76-3.28-5.64-7.24-5.64-11.91S63.54,18.28,67.3,15c3.76-3.28,8.29-4.92,13.63-4.92c5.25,0,9.83,1.64,13.63,4.92
		c0.92,0.88,1.4,1.89,1.4,2.99c0,2.32-2.17,4.21-4.82,4.21c-1.35,0-2.51-0.42-3.42-1.22c-1.88-1.64-4.14-2.48-6.79-2.48
		c-2.65,0-4.91,0.84-6.79,2.48c-1.88,1.64-2.84,3.62-2.84,5.93s0.96,4.29,2.84,5.94c1.88,1.64,4.14,2.48,6.79,2.48
		C82.91,35.33,84.69,34.83,86.33,33.86z"/>
	<path class="st0" d="M103.19,14.28c0-2.32,2.17-4.21,4.82-4.21c2.65,0,4.82,1.89,4.82,4.21v8.42h16.86v-8.42
		c0-2.32,2.17-4.21,4.82-4.21c2.65,0,4.82,1.89,4.82,4.21v25.25c0,2.32-2.17,4.21-4.82,4.21c-2.65,0-4.82-1.89-4.82-4.21v-8.42
		h-16.86v8.42c0,2.32-2.17,4.21-4.82,4.21c-2.65,0-4.82-1.89-4.82-4.21V14.28z"/>
	<path class="st0" d="M152.81,43.75c-2.65,0-4.82-1.89-4.82-4.21V14.28c0-2.32,2.17-4.21,4.82-4.21h19.46
		c3.28,0.04,6.07,1.09,8.38,3.16c2.31,2.06,3.47,4.5,3.47,7.37c0,2.32-0.82,4.42-2.41,6.31c1.59,1.89,2.41,4,2.41,6.31
		c0,2.9-1.16,5.39-3.52,7.45c-2.36,2.06-5.2,3.07-8.53,3.07H152.81z M157.63,18.49v4.21h14.45c1.35,0,2.41-0.93,2.41-2.1
		c0-1.18-1.06-2.1-2.41-2.1H157.63z M157.63,31.12v4.21h14.45c1.35,0,2.41-0.93,2.41-2.1c0-1.14-1.01-2.06-2.22-2.1H157.63z"/>
	<path class="st0" d="M191.83,14.28c0-2.32,2.17-4.21,4.82-4.21h14.45c3.66,0,6.79,1.14,9.35,3.41c2.6,2.23,3.9,4.97,3.9,8.17
		c0,4.04-2.41,7.62-6.12,9.77l5.93,5.14c0.92,0.88,1.4,1.89,1.4,2.99c0,2.32-2.17,4.21-4.82,4.21c-1.35,0-2.51-0.42-3.42-1.22
		l-10.65-9.3h-5.2v6.31c0,2.32-2.17,4.21-4.82,4.21c-2.65,0-4.82-1.89-4.82-4.21V14.28z M201.47,18.49v6.31h9.63
		c1.98,0,3.61-1.43,3.61-3.16c0-1.68-1.59-3.03-3.47-3.16H201.47z"/>
	<path class="st0" d="M317.63,25.52l-7.23,15.62c-0.77,1.56-2.55,2.61-4.48,2.61c-1.98,0-3.76-1.05-4.48-2.61l-11.71-25.3
		c-0.24-0.42-0.34-0.93-0.34-1.56c0-2.32,2.17-4.21,4.82-4.21c1.93,0,3.71,1.05,4.48,2.61l7.23,15.62l7.23-15.62
		c0.72-1.56,2.51-2.61,4.48-2.61c1.93,0,3.71,1.05,4.48,2.61l7.23,15.62l7.23-15.62c0.72-1.56,2.5-2.61,4.48-2.61
		c2.65,0,4.82,1.89,4.82,4.21c0,0.51-0.1,1.01-0.34,1.56l-11.71,25.3c-0.77,1.56-2.55,2.61-4.48,2.61c-1.98,0-3.76-1.05-4.48-2.61
		L317.63,25.52z"/>
	<g>
		<path class="st1" d="M283.72,17.77c-5.15-14.04-20.71-21.25-34.75-16.1c-14.04,5.15-21.25,20.7-16.1,34.75
			c4.48,12.21,16.82,19.25,29.19,17.5l7.79,4.69l2.91-8.62C283.33,43.32,288.19,29.97,283.72,17.77z M276.53,28.16
			c-0.01,0.15-0.02,0.3-0.03,0.45c-0.05,0.59-0.13,1.19-0.24,1.78c-0.05,0.3-0.12,0.59-0.19,0.89c-0.07,0.3-0.15,0.59-0.23,0.88
			c-0.09,0.29-0.18,0.59-0.28,0.88c-0.2,0.58-0.44,1.16-0.7,1.73c-0.26,0.57-0.56,1.12-0.87,1.66c-0.16,0.26-0.32,0.52-0.49,0.78
			c-0.17,0.25-0.34,0.5-0.52,0.75c-0.18,0.24-0.37,0.48-0.56,0.72c-0.38,0.47-0.78,0.91-1.21,1.33c-0.21,0.21-0.43,0.42-0.64,0.62
			c-0.22,0.2-0.44,0.39-0.67,0.58c-0.12,0.09-0.23,0.19-0.35,0.28c-0.23,0.18-0.47,0.36-0.71,0.53c-0.15,0.11-0.3,0.21-0.46,0.31
			c-0.58,0.39-1.18,0.74-1.8,1.05c-0.39,0.2-0.79,0.38-1.19,0.55c-0.27,0.11-0.54,0.22-0.82,0.32c-0.27,0.1-0.55,0.19-0.83,0.28
			c-1.26,0.39-2.55,0.65-3.87,0.77c-0.29,0.03-0.59,0.04-0.88,0.06c-0.59,0.02-1.18,0.02-1.78-0.02c-0.3-0.02-0.59-0.04-0.89-0.07
			c-0.61-0.07-1.23-0.17-1.84-0.3c-0.91-0.19-1.81-0.46-2.71-0.8c-0.39-0.15-0.78-0.31-1.17-0.49c-1.86-0.86-3.5-2-4.91-3.33
			c-0.22-0.21-0.43-0.42-0.63-0.63c-0.41-0.43-0.8-0.88-1.16-1.34c-0.18-0.23-0.36-0.47-0.53-0.71c-0.76-1.08-1.4-2.24-1.92-3.45
			c-0.11-0.27-0.22-0.54-0.32-0.82c-0.1-0.27-0.2-0.55-0.28-0.83c-0.13-0.42-0.25-0.84-0.35-1.27c-0.2-0.85-0.34-1.72-0.42-2.6
			c-0.03-0.29-0.04-0.59-0.06-0.88c-0.01-0.15-0.01-0.3-0.01-0.44c0-0.3,0-0.59,0.01-0.89c0.01-0.3,0.03-0.59,0.05-0.89
			c0.05-0.59,0.13-1.19,0.24-1.78c0.05-0.3,0.12-0.59,0.19-0.89c0.07-0.3,0.15-0.59,0.23-0.88c0.08-0.29,0.18-0.59,0.28-0.88
			c0.2-0.58,0.44-1.16,0.7-1.73c0.27-0.57,0.56-1.12,0.87-1.65c0.16-0.27,0.32-0.53,0.49-0.78c0.17-0.26,0.34-0.51,0.52-0.75
			c0.18-0.24,0.37-0.48,0.56-0.72c0.38-0.47,0.78-0.91,1.21-1.33c0.1-0.11,0.21-0.21,0.32-0.31c0.32-0.31,0.66-0.6,1-0.88
			c0.11-0.09,0.23-0.19,0.35-0.28c0.23-0.18,0.47-0.36,0.71-0.53c0.72-0.51,1.48-0.96,2.26-1.36c0.39-0.2,0.79-0.38,1.19-0.55
			c0.27-0.11,0.54-0.22,0.82-0.32c0.27-0.1,0.55-0.19,0.83-0.28c0.13-0.04,0.27-0.08,0.4-0.12c1.13-0.33,2.29-0.54,3.47-0.65
			c0.29-0.03,0.59-0.04,0.88-0.06c0.3-0.01,0.59-0.02,0.89-0.01c0.2,0,0.41,0.01,0.61,0.02c0.09,0,0.18,0.01,0.28,0.01
			c0.3,0.02,0.59,0.04,0.89,0.07c1.75,0.19,3.5,0.64,5.2,1.36c0.17,0.07,0.35,0.15,0.52,0.23c0.1,0.05,0.2,0.1,0.3,0.14
			c0.28,0.14,0.56,0.28,0.83,0.43c0.6,0.33,1.18,0.69,1.73,1.08c0.11,0.08,0.21,0.15,0.32,0.23c0.15,0.11,0.29,0.22,0.43,0.33
			c0.46,0.36,0.89,0.73,1.3,1.13c0.04,0.03,0.07,0.07,0.11,0.1c0.18,0.17,0.35,0.34,0.52,0.52c0,0,0,0,0.01,0.01
			c0.16,0.17,0.31,0.34,0.46,0.51c0.04,0.05,0.09,0.1,0.13,0.15c0.11,0.12,0.21,0.25,0.31,0.37c0.09,0.1,0.17,0.21,0.25,0.31
			c0.18,0.23,0.36,0.47,0.53,0.71c0.43,0.62,0.83,1.26,1.18,1.92c0.27,0.5,0.51,1.01,0.73,1.53c0.11,0.27,0.22,0.54,0.32,0.81
			c0.1,0.27,0.19,0.55,0.28,0.83c0.13,0.42,0.25,0.84,0.35,1.27c0.2,0.85,0.34,1.72,0.42,2.6c0.03,0.29,0.04,0.59,0.06,0.88
			c0.01,0.15,0.01,0.3,0.01,0.44C276.56,27.27,276.55,27.72,276.53,28.16z"/>
	</g>
	<g>
		<path class="st2" d="M272.62,21.68c-0.1-0.22-0.46-0.35-0.35-0.63c0.07-0.16,0.17-0.28,0.23-0.46c0.01-0.05,0.03-0.12,0.05-0.2
			c-0.09-0.2-0.19-0.4-0.29-0.59c-0.15,0.04-0.33,0.11-0.48,0.12c-0.14,0-0.34-0.01-0.45-0.09c-0.07-0.05-0.17-0.23-0.11-0.39
			c0,0,0,0,0,0c0.07-0.17,0.19-0.12,0.31-0.28c0.02-0.12-0.1-0.15-0.17-0.27c-0.08-0.14-0.08-0.38-0.23-0.48
			c-0.07-0.05-0.21-0.03-0.29-0.06c-0.16-0.06-0.27-0.19-0.38-0.29c-0.06-0.06-0.12-0.1-0.2-0.12c-0.01,0-0.02,0-0.03,0
			c-0.13-0.01-0.24,0.09-0.35,0.17c-0.08,0.05-0.16,0.1-0.25,0.09c-0.04,0.17-0.31,0.18-0.39,0.29c-0.06,0.08-0.06,0.19-0.09,0.27
			c-0.31,0.79-1.11,0.86-1.86,0.49c-0.21,0.07-0.3,0.35-0.47,0.51c-0.14,0.13-0.46,0.19-0.62,0.11c-0.11-0.07-0.17-0.3-0.12-0.41
			c0.06-0.14,0.3-0.12,0.25-0.33c0.07-0.1,0.33-0.05,0.38-0.23c0.05-0.19-0.24-0.21-0.45-0.35c-0.15-0.1-0.32-0.29-0.43-0.43
			c-0.14-0.19-0.21-0.47-0.44-0.62c-0.13-0.08-0.29-0.08-0.32-0.19c-0.03-0.12,0.13-0.2,0.16-0.26c0.04-0.1-0.13-0.22-0.09-0.32
			c0.02-0.07,0.3-0.2,0.4-0.23c0.18-0.05,0.47-0.06,0.72-0.08c0.25-0.02,0.54-0.02,0.76,0c0.1,0.01,0.19,0.06,0.28,0.07
			c0.24,0.02,0.44-0.06,0.66-0.03c0.11,0.02,0.22,0.07,0.35,0.1c0.13,0.03,0.27,0.02,0.4,0.02c0.1-0.01,0.19-0.01,0.28-0.01
			c0.05,0,0.1,0.01,0.15,0.02c-0.14,0.16-0.36,0.1-0.49,0.26c0.03,0.44,0.57,0.16,0.8,0.27c0.21,0.1,0.28,0.49,0.54,0.27
			c0.02-0.17-0.08-0.32-0.17-0.47c-0.09-0.14-0.25-0.3-0.16-0.46c0.18,0,0.15,0.21,0.29,0.27c0.05,0.02,0.14,0.01,0.21,0
			c-0.24-0.28-0.5-0.55-0.77-0.81c-0.19-0.18-0.38-0.36-0.57-0.54c-0.03-0.03-0.07-0.06-0.1-0.09c-0.15,0.07-0.46,0.05-0.54-0.07
			c0.07-0.14,0.23-0.04,0.31-0.13c-0.14-0.12-0.28-0.23-0.42-0.34c-0.07,0-0.13,0.01-0.17,0.03c-0.11,0.04-0.17,0.18-0.29,0.2
			c-0.19,0.03-0.36-0.11-0.52-0.18c-0.33-0.14-0.52-0.21-0.7-0.44c-0.05-0.07-0.16-0.19-0.1-0.3c0.26,0.11,0.44,0.35,0.76,0.43
			c0.11,0.03,0.19-0.05,0.32-0.05c0.13,0,0.23,0.1,0.32,0.02c-0.53-0.39-1.09-0.75-1.68-1.08c-0.33-0.18-0.68-0.36-1.03-0.52
			c-0.12-0.05-0.24-0.11-0.35-0.16c-0.09,0.08-0.19,0.14-0.27,0.2c-0.1,0.08-0.12,0.15-0.19,0.17c-0.3,0.05-0.58-0.43-0.85-0.61
			c-0.15-0.1-0.32-0.1-0.47-0.16c-0.16-0.07-0.26-0.21-0.44-0.2c-0.06-0.05-0.06-0.12-0.07-0.19c-2.56-0.67-5.19-0.65-7.66-0.05
			c0.04,0.16,0.03,0.34,0.06,0.44c0.01,0.07-0.18,0.12-0.23,0.19c-0.03,0.05-0.02,0.14-0.06,0.21c-0.09,0.16-0.27,0.21-0.2,0.36
			c0.07,0.15,0.38,0.01,0.41,0.21c0.04,0.21-0.2,0.17-0.29,0.29c-0.11,0.15-0.1,0.35-0.18,0.51c-0.03,0.07-0.13,0.22-0.18,0.27
			c-0.1,0.09-0.26,0.01-0.33,0.12c-0.11,0.17,0.13,0.44,0.07,0.6c-0.04,0.12-0.23,0.27-0.31,0.34c-0.23,0.2-0.5,0.34-0.79,0.48
			c-0.27,0.13-0.62,0.2-0.83,0.36c-0.12,0.08-0.19,0.21-0.29,0.3c-0.15,0.12-0.33,0.13-0.49,0.24c-0.14,0.21-0.21,0.42-0.29,0.63
			c-0.09,0.21-0.2,0.42-0.27,0.62c-0.04,0.11-0.09,0.34-0.08,0.47c0.02,0.15,0.14,0.17,0.25,0.31c0.08,0.11,0.18,0.34,0.16,0.46
			c-0.02,0.14-0.12,0.32-0.18,0.48c-0.06,0.18-0.15,0.37-0.16,0.51c-0.02,0.15,0.14,0.38,0.06,0.54c-0.07,0.14-0.27,0.07-0.34,0.22
			c-0.11,0.23,0.35,0.45,0.3,0.71c-0.03,0.13-0.17,0.22-0.19,0.32c-0.02,0.13,0.12,0.31,0.16,0.38c0.05,0.13,0.04,0.31,0.21,0.35
			c0.18-0.09,0.03-0.31,0.03-0.45c0-0.17,0.11-0.4,0.15-0.66c0.02-0.16-0.05-0.33-0.04-0.47c0.02-0.15,0.09-0.28,0.09-0.41
			c0-0.13-0.08-0.34-0.05-0.45c0.13-0.41,0.59-0.35,0.57-0.01c-0.01,0.21-0.19,0.32-0.24,0.52c-0.04,0.16,0.08,0.38,0.11,0.56
			c0.04,0.19,0.06,0.38,0.11,0.52c-0.04,0.11-0.05,0.13-0.1,0.23c0.06,0.22,0.15,0.43,0.2,0.66c0.07,0.31,0.23,0.72,0.01,1.08
			c-0.07,0.11-0.24,0.17-0.29,0.29c-0.05,0.11,0.03,0.3,0.11,0.44c0.09,0.15,0.15,0.3,0.23,0.4c0.06,0.07,0.18,0.13,0.25,0.21
			c0.09,0.11,0.13,0.27,0.23,0.4c0.13,0.16,0.32,0.31,0.48,0.5c0.15,0.18,0.35,0.42,0.5,0.49c0.15,0.07,0.39-0.01,0.56,0.06
			c0.4,0.17,0.34,0.77,0.58,1.07c0.06,0.08,0.17,0.13,0.26,0.2c0.08,0.06,0.12,0.12,0.19,0.19c0.14,0.14,0.36,0.23,0.46,0.35
			c0.16,0.19,0.13,0.64,0.26,0.83c-0.04,0.11-0.13,0.24-0.13,0.33c0.03,0.15,0.16,0.18,0.27,0.32c0.12,0.16,0.07,0.42,0.19,0.56
			c0.04,0.05,0.18,0.11,0.25,0.18c0.18,0.16,0.14,0.44,0.35,0.47c0.14,0.02,0.18-0.11,0.26-0.21c0.12-0.05,0.27-0.15,0.4-0.09
			c0.2,0.09,0.12,0.31,0.1,0.54c-0.01,0.13,0.05,0.28,0.03,0.4c-0.04,0.22-0.34,0.81-0.44,0.91c-0.12,0.12-0.34,0.09-0.54,0.2
			c-0.09,0.05-0.17,0.15-0.24,0.18c-0.12,0.06-0.25,0.03-0.36,0.09c-0.06,0.03-0.14,0.13-0.2,0.18c-0.19,0.16-0.39,0.24-0.42,0.53
			c-0.01,0.12,0.12,0.26,0.06,0.38c-0.06,0.14-0.42,0.13-0.52,0.27c-0.07,0.11-0.06,0.36-0.09,0.53c-0.03,0.13,0.16,0.29,0.19,0.4
			c0.05,0.18,0.06,0.4,0.09,0.61c0.06,0.41,0.04,0.86,0.1,1.26c0.02,0.11,0.05,0.22,0.07,0.33c0.02,0.1,0.04,0.19,0.03,0.28
			c0,0.1-0.05,0.2-0.05,0.29c0,0.31,0.38,0.82,0.58,1.07c0.1,0.12,0.22,0.2,0.3,0.32c0.13,0.17,0.35,0.59,0.37,0.78
			c0.01,0.17-0.09,0.52-0.15,0.75c-0.08,0.31-0.23,0.5-0.36,0.81c-0.06,0.14-0.08,0.3-0.14,0.45c4.1,0.82,8.31-0.06,11.71-2.29
			c-0.09-0.21-0.18-0.4-0.37-0.51c-0.08-0.05-0.18-0.04-0.27-0.09c-0.16-0.08-0.34-0.29-0.51-0.39c-0.11-0.06-0.27-0.09-0.32-0.15
			c-0.08-0.1,0-0.29-0.06-0.38c-0.05-0.07-0.17-0.15-0.25-0.23c-0.13-0.14-0.22-0.26-0.4-0.36c-0.06-0.03-0.14-0.03-0.2-0.07
			c-0.09-0.06-0.12-0.22-0.18-0.32c-0.08-0.13-0.18-0.21-0.18-0.34c0.27-0.3,0.02-0.53,0.04-0.77c0.01-0.11,0.08-0.21,0.09-0.31
			c0.01-0.14-0.07-0.26-0.16-0.42c-0.15-0.29-0.28-0.55-0.6-0.75c-0.14-0.09-0.31-0.09-0.49-0.18c-0.18-0.1-0.34-0.37-0.41-0.6
			c-0.06-0.22-0.07-0.39-0.15-0.52c-0.08-0.12-0.23-0.19-0.27-0.3c-0.02-0.05,0.01-0.1,0.01-0.19c0-0.14-0.07-0.25,0.07-0.36
			c-0.1-0.13-0.19,0.06-0.32-0.03c-0.04-0.24-0.11-0.37-0.42-0.45c-0.14-0.04-0.29,0.09-0.45,0.03c-0.13-0.05-0.16-0.24-0.31-0.34
			c-0.12-0.08-0.28-0.09-0.36-0.15c-0.12-0.09-0.11-0.23-0.2-0.37c-0.06-0.1-0.2-0.29-0.25-0.31c-0.17-0.07-0.44,0.22-0.61-0.01
			c-0.05-0.19,0.27-0.13,0.21-0.32c-0.05-0.14-0.2-0.04-0.3-0.02c-0.12,0.02-0.23,0.04-0.35,0.03c-0.26-0.02-0.38-0.13-0.59-0.12
			c-0.2,0.01-0.27,0.14-0.44,0.27c-0.08,0.06-0.21,0.13-0.32,0.16c-0.08,0.02-0.15,0.03-0.19,0.01c-0.14-0.05-0.18-0.31-0.28-0.42
			c-0.3-0.33-0.61-0.11-0.92-0.25c-0.29-0.13-0.48-0.78-0.34-1.04c0.09-0.16,0.28-0.37,0.4-0.56c0.09-0.15,0.25-0.2,0.32-0.34
			c0.09-0.2-0.1-0.47-0.22-0.55c-0.28-0.2-0.78-0.21-1.06-0.51c-0.02-0.14,0.16-0.15,0.25-0.24c0.05-0.05,0.07-0.14,0.13-0.19
			c0.09-0.08,0.23-0.11,0.33-0.2c0.07-0.07,0.14-0.18,0.22-0.27c0.1-0.1,0.21-0.14,0.26-0.21c0.06-0.1,0.08-0.25,0.03-0.36
			c-0.27-0.11-0.46-0.18-0.64-0.18c-0.42,0-0.57,0.5-0.97,0.45c-0.14-0.02-0.31-0.09-0.45-0.13c-0.12-0.03-0.29-0.03-0.41-0.09
			c-0.14-0.07-0.32-0.31-0.36-0.44c-0.04-0.11-0.03-0.6-0.02-0.67c0.08-0.54,0.43-0.91,0.77-1.15c0.07-0.05,0.16-0.09,0.23-0.15
			c0.1-0.09,0.15-0.27,0.24-0.38c0.17-0.2,0.52-0.19,0.78-0.21c0.29-0.01,0.58-0.12,0.87-0.01c0.14,0.05,0.32,0.19,0.44,0.28
			c0.11,0.08,0.17,0.21,0.27,0.26c0.29,0.16,0.47-0.04,0.77-0.05c0.24,0.15,0.44,0.15,0.65,0.28c0.15,0.09,0.18,0.31,0.3,0.37
			c0.1,0.06,0.24-0.01,0.33,0.05c0.09,0.06,0.16,0.34,0.12,0.47c-0.05,0.15-0.24,0.23-0.27,0.4c0.08,0.23,0.34,0.38,0.52,0.57
			c0.19-0.05,0.17-0.32,0.23-0.5c0.03-0.08,0.07-0.14,0.1-0.21c0.04-0.12,0.04-0.25,0.09-0.35c0.16-0.35,0.46-0.46,0.77-0.5
			c0.1-0.02,0.2-0.03,0.3-0.04c0.17-0.02,0.34-0.11,0.48-0.11c0.2-0.01,0.33,0.03,0.5,0.02c0.31-0.02,0.57-0.04,0.83-0.1
			c0.18-0.17,0.23-0.49,0.34-0.69c0.11-0.01,0.15,0.1,0.25,0.14c0.16,0.04,0.27-0.17,0.39-0.21c0.07-0.02,0.22,0,0.3-0.02
			c0.2-0.05,0.33-0.2,0.48-0.19c0.05,0,0.16,0.06,0.24,0.07c0.11,0.02,0.3-0.03,0.48-0.01c0.12,0.01,0.35,0.11,0.41,0.09
			c0.07-0.03,0.09-0.18,0.14-0.25c0.25-0.33,0.83-0.15,1.22-0.12c0.27,0.02,0.57-0.03,0.8,0.13c-0.13,0.15-0.33-0.02-0.39,0.21
			c-0.08,0.32,0.49,0.12,0.61,0.13c0.23,0.01,0.59,0.12,0.9,0.14c0.27,0.02,0.73,0.09,0.64-0.27c-0.17-0.09-0.36,0.09-0.55,0.08
			c-0.11-0.03-0.05-0.13-0.13-0.18c-0.08-0.05-0.17,0.02-0.26-0.04c-0.08-0.06-0.14-0.25-0.11-0.36c0.09-0.29,0.4-0.27,0.61-0.42
			c0.04-0.28-0.39-0.24-0.55-0.43c0.09-0.14,0.28-0.17,0.47-0.12c0.15,0.04,0.45,0.2,0.5,0.31c0.03,0.06-0.06,0.14-0.02,0.25
			c0.05,0.11,0.15,0.15,0.27,0.18c0.12-0.17-0.18-0.25-0.09-0.36c0.29-0.04,0.58,0.24,0.87,0.33c0.16,0.05,0.38,0.01,0.55,0
			c0.16-0.01,0.39-0.06,0.47,0.12c-0.02,0.15-0.2,0.12-0.31,0.15c-0.35,0.1-0.72,0.24-1.03,0.4c0.06,0.17,0.31,0.21,0.5,0.33
			c0.07,0.05,0.16,0.12,0.23,0.17c0.09,0.06,0.19,0.11,0.26,0.16c0.12,0.1,0.09,0.26,0.23,0.32c0.22,0.1,0.33-0.14,0.28-0.34
			c0.11-0.13,0.21-0.18,0.2-0.32c-0.01-0.25-0.46-0.22-0.37-0.48c0.06-0.17,0.21-0.09,0.32-0.18c0.12-0.32,0.41-0.22,0.51-0.51
			c0.04-0.12-0.06-0.17-0.09-0.32C272.62,21.86,272.65,21.74,272.62,21.68z"/>
	</g>
</g>
</svg>
