<svg width="49" height="46" viewBox="0 0 49 46" fill="none" xmlns="http://www.w3.org/2000/svg">
<path d="M5.40409 40.5959L17.4245 28.5755M43.8695 40.5959L31.8491 28.5755M3.06808 18.9591L20.3686 30.5386C21.9108 31.5669 22.682 32.0809 23.5155 32.2806C24.2519 32.4571 25.0198 32.4571 25.7564 32.2806C26.5899 32.0809 27.3611 31.5669 28.9034 30.5386L46.2039 18.9591M20.5453 4.69993L6.60166 13.4568C5.28679 14.2825 4.62937 14.6954 4.15252 15.2535C3.73048 15.7475 3.41293 16.3219 3.21904 16.9421C3 17.6427 3 18.419 3 19.9717V35.3069C3 37.9997 3 39.3463 3.52407 40.3747C3.98503 41.2794 4.72058 42.015 5.62532 42.4759C6.65383 43 8.00027 43 10.6931 43H38.5805C41.2734 43 42.6199 43 43.6484 42.4759C44.553 42.015 45.2887 41.2794 45.7495 40.3747C46.2736 39.3463 46.2736 37.9997 46.2736 35.3069V19.9717C46.2736 18.419 46.2736 17.6427 46.0546 16.9421C45.8606 16.3219 45.5433 15.7475 45.1211 15.2535C44.6444 14.6954 43.9869 14.2825 42.6721 13.4568L28.7283 4.69993C27.2443 3.76803 26.5024 3.30209 25.7064 3.12046C25.0022 2.95985 24.2714 2.95985 23.5672 3.12046C22.7712 3.30209 22.0293 3.76803 20.5453 4.69993Z" stroke="#E2CE0A" stroke-width="5" stroke-linecap="round" stroke-linejoin="round"/>
</svg>
