<svg width="150" height="150" viewBox="0 0 150 150" fill="none" xmlns="http://www.w3.org/2000/svg">
<path d="M117.297 60.0078C109.039 60.0078 102.324 53.2812 102.324 45.0117C102.324 36.7422 109.039 30.0195 117.297 30.0195C125.555 30.0195 132.273 36.7422 132.273 45.0117C132.273 53.2812 125.555 60.0078 117.297 60.0078ZM117.297 35.0156C111.793 35.0156 107.316 39.5 107.316 45.0117C107.316 50.5273 111.793 55.0078 117.297 55.0078C122.805 55.0078 127.281 50.5273 127.281 45.0117C127.281 39.5 122.801 35.0156 117.297 35.0156Z" fill="#E2CE0A"/>
<path d="M132.273 129.977C130.895 129.977 129.777 128.855 129.777 127.477V79.9961C129.777 78.6172 130.895 77.5 132.273 77.5C133.648 77.5 134.77 78.6172 134.77 79.9961V127.477C134.77 128.855 133.648 129.977 132.273 129.977Z" fill="#E2CE0A"/>
<path d="M102.324 139.973C100.945 139.973 99.8281 138.852 99.8281 137.473V79.9961C99.8281 78.6172 100.945 77.5 102.324 77.5C103.703 77.5 104.82 78.6172 104.82 79.9961V137.473C104.82 138.852 103.703 139.973 102.324 139.973Z" fill="#E2CE0A"/>
<path d="M117.297 134.973C115.922 134.973 114.801 133.855 114.801 132.477V117.48C114.801 116.102 115.922 114.984 117.297 114.984C118.676 114.984 119.793 116.102 119.793 117.48V132.477C119.793 133.855 118.676 134.973 117.297 134.973Z" fill="#E2CE0A"/>
<mask id="mask0_109_532" style="mask-type:luminance" maskUnits="userSpaceOnUse" x="93" y="62" width="55" height="56">
<path d="M93 62H147.281V118H93V62Z" fill="white"/>
</mask>
<g mask="url(#mask0_109_532)">
<path d="M137.262 117.48H132.273C130.894 117.48 129.777 116.363 129.777 114.984C129.777 113.602 130.894 112.484 132.273 112.484H137.262C140.015 112.484 142.254 110.242 142.254 107.484V79.9961C142.254 73.1094 136.656 67.5039 129.777 67.5039H104.828C102.18 67.5039 99.6795 68.3125 97.5975 69.8438C96.4842 70.6562 94.9256 70.418 94.1092 69.3086C93.2928 68.1992 93.5311 66.6328 94.6405 65.8125C97.5858 63.6484 101.109 62.5039 104.828 62.5039H129.777C139.41 62.5039 147.246 70.3516 147.246 79.9961V107.484C147.246 113 142.765 117.48 137.262 117.48Z" fill="#E2CE0A"/>
</g>
<path d="M102.332 117.48H97.3438C91.8359 117.48 87.3594 113 87.3594 107.484V102.488C87.3594 101.109 88.4766 99.9883 89.8555 99.9883C91.2344 99.9883 92.3516 101.109 92.3516 102.488V107.484C92.3516 110.242 94.5898 112.484 97.3438 112.484H102.332C103.711 112.484 104.828 113.602 104.828 114.984C104.828 116.363 103.711 117.48 102.332 117.48Z" fill="#E2CE0A"/>
<path d="M32.4453 60.0078C24.1875 60.0078 17.4727 53.2812 17.4727 45.0117C17.4727 36.7422 24.1875 30.0195 32.4453 30.0195C40.707 30.0195 47.4219 36.7422 47.4219 45.0117C47.4219 53.2812 40.7031 60.0078 32.4453 60.0078ZM32.4453 35.0156C26.9414 35.0156 22.4648 39.5 22.4648 45.0117C22.4648 50.5273 26.9414 55.0078 32.4453 55.0078C37.9531 55.0078 42.4297 50.5273 42.4297 45.0117C42.4297 39.5 37.9492 35.0156 32.4453 35.0156Z" fill="#E2CE0A"/>
<path d="M17.4727 129.977C16.0938 129.977 14.9766 128.855 14.9766 127.477V79.9961C14.9766 78.6172 16.0938 77.5 17.4727 77.5C18.8516 77.5 19.9688 78.6172 19.9688 79.9961V127.477C19.9688 128.855 18.8516 129.977 17.4727 129.977Z" fill="#E2CE0A"/>
<path d="M47.4219 139.973C46.043 139.973 44.9258 138.852 44.9258 137.473V79.9961C44.9258 78.6172 46.043 77.5 47.4219 77.5C48.8008 77.5 49.918 78.6172 49.918 79.9961V137.473C49.918 138.852 48.8008 139.973 47.4219 139.973Z" fill="#E2CE0A"/>
<path d="M32.4453 134.973C31.0703 134.973 29.9531 133.855 29.9531 132.477V117.48C29.9531 116.102 31.0703 114.984 32.4453 114.984C33.8242 114.984 34.9414 116.102 34.9414 117.48V132.477C34.9414 133.855 33.8242 134.973 32.4453 134.973Z" fill="#E2CE0A"/>
<mask id="mask1_109_532" style="mask-type:luminance" maskUnits="userSpaceOnUse" x="2" y="62" width="55" height="56">
<path d="M2.53125 62H57V118H2.53125V62Z" fill="white"/>
</mask>
<g mask="url(#mask1_109_532)">
<path d="M17.4727 117.48H12.4805C6.97656 117.48 2.5 113 2.5 107.484V79.9961C2.5 70.3516 10.3359 62.5039 19.9688 62.5039H44.9336C48.6484 62.5039 52.1797 63.6562 55.1445 65.8398C56.2578 66.6562 56.4961 68.2188 55.6797 69.332C54.8633 70.4453 53.2969 70.6836 52.1914 69.8672C50.0899 68.3203 47.5781 67.5039 44.9336 67.5039H19.9688C13.0898 67.5039 7.48828 73.1094 7.48828 79.9961V107.484C7.48828 110.242 9.73047 112.484 12.4805 112.484H17.4727C18.8516 112.484 19.9688 113.602 19.9688 114.984C19.9688 116.363 18.8516 117.48 17.4727 117.48Z" fill="#E2CE0A"/>
</g>
<path d="M52.4219 117.48H47.4297C46.0508 117.48 44.9336 116.363 44.9336 114.984C44.9336 113.602 46.0508 112.484 47.4297 112.484H52.4219C55.1719 112.484 57.4102 110.242 57.4102 107.484V102.488C57.4102 101.109 58.5312 99.9883 59.9062 99.9883C61.2852 99.9883 62.4023 101.109 62.4023 102.488V107.484C62.4023 113 57.9258 117.48 52.4219 117.48Z" fill="#E2CE0A"/>
<path d="M52.4453 30.0195C44.1875 30.0195 37.4727 23.293 37.4727 15.0273C37.4727 6.75781 44.1875 0.03125 52.4453 0.03125C60.7031 0.03125 67.418 6.75781 67.418 15.0273C67.418 23.293 60.7031 30.0195 52.4453 30.0195ZM52.4453 5.03125C46.9414 5.03125 42.4609 9.51172 42.4609 15.0273C42.4609 20.5391 46.9414 25.0234 52.4453 25.0234C57.9492 25.0234 62.4297 20.5391 62.4297 15.0273C62.4297 9.51172 57.9492 5.03125 52.4453 5.03125Z" fill="#E2CE0A"/>
<path d="M97.3672 30.0195C89.1094 30.0195 82.3945 23.293 82.3945 15.0273C82.3945 6.75781 89.1094 0.03125 97.3672 0.03125C105.625 0.03125 112.34 6.75781 112.34 15.0273C112.34 23.293 105.625 30.0195 97.3672 30.0195ZM97.3672 5.03125C91.8633 5.03125 87.3828 9.51172 87.3828 15.0273C87.3828 20.5391 91.8633 25.0234 97.3672 25.0234C102.871 25.0234 107.352 20.5391 107.352 15.0273C107.352 9.51172 102.871 5.03125 97.3672 5.03125Z" fill="#E2CE0A"/>
<path d="M74.9063 60.0078C66.6484 60.0078 59.9336 53.2812 59.9336 45.0117C59.9336 36.7422 66.6484 30.0195 74.9063 30.0195C83.1641 30.0195 89.8789 36.7422 89.8789 45.0117C89.8789 53.2812 83.1641 60.0078 74.9063 60.0078ZM74.9063 35.0156C69.4023 35.0156 64.9219 39.5 64.9219 45.0117C64.9219 50.5273 69.4023 55.0078 74.9063 55.0078C80.4102 55.0078 84.8906 50.5273 84.8906 45.0117C84.8906 39.5 80.4102 35.0156 74.9063 35.0156Z" fill="#E2CE0A"/>
<path d="M89.8789 144.969C88.5039 144.969 87.3828 143.852 87.3828 142.473V104.988H62.4297V142.473C62.4297 143.852 61.3086 144.969 59.9336 144.969C58.5547 144.969 57.4375 143.852 57.4375 142.473V102.488C57.4375 101.109 58.5547 99.9883 59.9336 99.9883H89.8789C91.2578 99.9883 92.375 101.109 92.375 102.488V142.473C92.375 143.852 91.2578 144.969 89.8789 144.969Z" fill="#E2CE0A"/>
<path d="M74.9062 149.969C73.5273 149.969 72.4102 148.848 72.4102 147.469V117.48C72.4102 116.102 73.5273 114.984 74.9062 114.984C76.2852 114.984 77.4023 116.102 77.4023 117.48V147.469C77.4023 148.848 76.2852 149.969 74.9062 149.969Z" fill="#E2CE0A"/>
<path d="M94.8711 104.988H54.9414C49.4336 104.988 44.957 100.504 44.957 94.9922V79.9961C44.957 70.3516 52.793 62.5039 62.4297 62.5039H87.3828C97.0195 62.5039 104.855 70.3516 104.855 79.9961V94.9922C104.855 100.504 100.379 104.988 94.8711 104.988ZM62.4297 67.5039C55.5469 67.5039 49.9492 73.1094 49.9492 79.9961V94.9922C49.9492 97.7461 52.1875 99.9883 54.9414 99.9883H94.8711C97.625 99.9883 99.8633 97.7461 99.8633 94.9922V79.9961C99.8633 73.1094 94.2656 67.5039 87.3828 67.5039H62.4297Z" fill="#E2CE0A"/>
<path d="M57.4377 92.4922C57.2776 92.4922 57.1135 92.4766 56.9455 92.4414C55.594 92.1719 54.719 90.8555 54.9924 89.5L57.4885 77.0078C57.758 75.6563 59.0627 74.7735 60.4221 75.0469C61.7776 75.3164 62.6526 76.6328 62.3791 77.9883L59.883 90.4844C59.6487 91.6719 58.6057 92.4922 57.4377 92.4922Z" fill="#E2CE0A"/>
<path d="M87.3832 104.988C87.0668 104.988 86.7425 104.926 86.4261 104.793L56.4769 92.2969C55.3793 91.8399 54.7582 90.6719 54.9925 89.5L56.5316 81.793C56.6644 81.1289 57.0589 80.5508 57.6254 80.1836C58.1918 79.8164 58.8832 79.6953 59.5394 79.8438L89.1722 86.6875L87.4339 77.9883C87.1644 76.6328 88.0433 75.3203 89.391 75.0469C90.7425 74.7774 92.0589 75.6563 92.3285 77.0078L94.8246 89.5C94.9925 90.332 94.723 91.1914 94.1175 91.7852C93.5082 92.3789 92.6449 92.6211 91.8168 92.4258L60.9222 85.2969L60.2855 88.4727L88.3441 100.184C89.6175 100.711 90.2191 102.176 89.6879 103.449C89.2894 104.41 88.3597 104.988 87.3832 104.988Z" fill="#E2CE0A"/>
</svg>
