<svg width="46" height="46" viewBox="0 0 46 46" fill="none" xmlns="http://www.w3.org/2000/svg">
<path d="M26.2632 11.4211C28.3196 11.8223 30.2093 12.8279 31.6907 14.3093C33.1722 15.7908 34.1779 17.6805 34.5789 19.7368M26.2632 3C30.5354 3.47461 34.5192 5.38773 37.5606 8.42528C40.6019 11.4628 42.5202 15.4442 43 19.7158M35.6316 43C17.6097 43 3 28.3903 3 10.3684C3 9.55533 3.02975 8.74918 3.08819 7.95101C3.15526 7.03499 3.1888 6.57699 3.42884 6.16006C3.62766 5.81476 3.98 5.48728 4.33891 5.31421C4.77223 5.10526 5.27764 5.10526 6.28844 5.10526H12.2196C13.0696 5.10526 13.4947 5.10526 13.859 5.24516C14.1808 5.36874 14.4674 5.56945 14.6935 5.82968C14.9495 6.12427 15.0947 6.5237 15.3852 7.32255L17.8402 14.0738C18.1781 15.0032 18.3472 15.4679 18.3185 15.9088C18.2933 16.2976 18.1604 16.6717 17.9352 16.9896C17.6797 17.3501 17.2557 17.6045 16.4076 18.1133L13.5263 19.8421C16.0566 25.4187 20.5792 29.9472 26.1579 32.4737L27.8867 29.5924C28.3956 28.7442 28.6499 28.3202 29.0103 28.0648C29.3282 27.8396 29.7023 27.7067 30.0912 27.6815C30.532 27.6528 30.9968 27.8219 31.9263 28.1598L38.6775 30.6147C39.4762 30.9053 39.8758 31.0505 40.1703 31.3065C40.4305 31.5326 40.6314 31.8192 40.7547 32.1411C40.8947 32.5053 40.8947 32.9303 40.8947 33.7804V39.7116C40.8947 40.7223 40.8947 41.2278 40.6857 41.6611C40.5126 42.02 40.1853 42.3724 39.84 42.5712C39.4229 42.8112 38.9651 42.8446 38.0491 42.9118C37.2507 42.9703 36.4446 43 35.6316 43Z" stroke="#E2CE0A" stroke-width="5" stroke-linecap="round" stroke-linejoin="round"/>
</svg>
